<svg width="21" height="22" viewBox="0 0 21 22" fill="none" xmlns="http://www.w3.org/2000/svg">
<g clip-path="url(#clip0_148_2201)">
<path d="M20 20.454L14.4133 14.8673C15.7558 13.2556 16.4253 11.1884 16.2825 9.09562C16.1396 7.00288 15.1954 5.04579 13.6464 3.63146C12.0973 2.21713 10.0626 1.45446 7.96554 1.50211C5.86847 1.54975 3.87051 2.40405 2.38728 3.88728C0.904053 5.37051 0.0497547 7.36847 0.00210549 9.46554C-0.0455437 11.5626 0.717125 13.5973 2.13146 15.1464C3.54579 16.6954 5.50288 17.6396 7.59562 17.7825C9.68835 17.9253 11.7556 17.2558 13.3673 15.9133L18.954 21.5L20 20.454ZM1.50598 9.66382C1.50598 8.34703 1.89645 7.0598 2.62803 5.96492C3.3596 4.87004 4.39941 4.01669 5.61598 3.51277C6.83254 3.00886 8.17121 2.87701 9.46271 3.1339C10.7542 3.3908 11.9405 4.0249 12.8716 4.95601C13.8028 5.88713 14.4369 7.07345 14.6937 8.36494C14.9506 9.65644 14.8188 10.9951 14.3149 12.2117C13.811 13.4282 12.9576 14.4681 11.8627 15.1996C10.7678 15.9312 9.48062 16.3217 8.16382 16.3217C6.39865 16.3197 4.70634 15.6176 3.45818 14.3695C2.21001 13.1213 1.50793 11.429 1.50598 9.66382Z" fill="#595959"/>
</g>
<defs>
<clipPath id="clip0_148_2201">
<rect width="21" height="21" fill="white" transform="translate(0 0.5)"/>
</clipPath>
</defs>
</svg>
