<svg width="21" height="22" viewBox="0 0 21 22" fill="none" xmlns="http://www.w3.org/2000/svg">
<path d="M10.5 18.875C8.94247 18.875 7.41992 18.4131 6.12488 17.5478C4.82985 16.6825 3.82049 15.4526 3.22445 14.0136C2.62841 12.5747 2.47246 10.9913 2.77631 9.46367C3.08017 7.93607 3.83019 6.53288 4.93153 5.43154C6.03287 4.3302 7.43606 3.58018 8.96366 3.27632C10.4913 2.97246 12.0747 3.12841 13.5136 3.72445C14.9526 4.32049 16.1825 5.32985 17.0478 6.62489C17.9131 7.91992 18.375 9.44248 18.375 11C18.375 12.1762 18.1179 13.291 17.6554 14.2935C17.5595 14.5012 17.5251 14.7334 17.5711 14.9576L18.0702 17.3896C18.2145 18.0928 17.5928 18.7145 16.8896 18.5702L14.4574 18.0711C14.2333 18.0251 14.0013 18.0594 13.7936 18.1552C12.7915 18.6172 11.6754 18.875 10.5 18.875Z" stroke="#E4E6EB" stroke-width="2" stroke-linecap="round" stroke-linejoin="round"/>
</svg>
